<svg id="Layer_1" data-name="Layer 1" xmlns="http://www.w3.org/2000/svg" xmlns:xlink="http://www.w3.org/1999/xlink" viewBox="0 0 146 146"><defs><clipPath id="clip-path"><rect width="146" height="146" style="fill:none"/></clipPath></defs><title>tg-icon</title><g style="clip-path:url(#clip-path)"><path d="M9,0S0,0,0,9V137s0,9,9,9H137s9,0,9-9V9s0-9-9-9Z" style="fill:#363558"/></g><path d="M35.5,55.39H15.3l2.6-15.6H75.7l-2.6,15.6H52.8l-9.4,56.4H26.1Z" style="fill:#fff"/><path d="M107.3,72.09H134l-4.9,29.8c-9.7,8.9-20.9,11.2-30.4,11.2-20.6,0-27.7-13.2-27.7-28.8,0-24.7,12.8-45.7,40-45.7,19.9,0,25.7,10.8,24.4,25.1H117.6c.3-5.1-1.6-9.2-8.9-9.2-12.2,0-19.3,11.2-19.3,27,0,9.8,4.1,16,13.4,16a19.39,19.39,0,0,0,10.9-2.9l1.5-9.3H105.1Z" style="fill:#fff"/></svg>